<?xml version="1.0" encoding="utf-8"?>
<!-- Generator: Adobe Illustrator 22.0.1, SVG Export Plug-In . SVG Version: 6.00 Build 0)  -->
<svg version="1.1" id="Layer_1" xmlns="http://www.w3.org/2000/svg" xmlns:xlink="http://www.w3.org/1999/xlink" x="0px" y="0px"
	 viewBox="0 0 44.5 43.7" style="enable-background:new 0 0 44.5 43.7;" xml:space="preserve">
<style type="text/css">
	.st0{fill:none;stroke:#333333;stroke-width:2;stroke-miterlimit:10;}
	.st1{fill:#333333;}
</style>
<circle class="st0" cx="22.7" cy="21.8" r="20"/>
<g transform="translate(0 -1)">
	<g>
		<g>
			<path class="st1" d="M16.7,13.8L16.7,13.8c-0.6,0-1.1,0.2-1.5,0.6c-0.4,0.4-0.6,1-0.6,1.5c0,0.6,0.2,1.1,0.7,1.6
				c0.4,0.4,1,0.6,1.5,0.6c0,0,0,0,0,0c0.5,0,1.1-0.2,1.5-0.6c0.4-0.4,0.7-1,0.7-1.6c0-0.6-0.2-1.1-0.6-1.5
				C17.8,14.1,17.3,13.8,16.7,13.8z"/>
			<path class="st1" d="M17.8,18.7h-2.2c-0.4,0-0.8,0.4-0.8,0.8V29c0,0.4,0.4,0.8,0.8,0.8h2.2c0.4,0,0.8-0.4,0.8-0.8v-9.5
				C18.6,19.1,18.2,18.7,17.8,18.7z"/>
			<path class="st1" d="M27,18.4h-0.6c-1.1,0-2.1,0.4-2.7,1.2v-0.4c0-0.3-0.3-0.5-0.5-0.5h-2.7c-0.3,0-0.5,0.2-0.5,0.5v10.1
				c0,0.3,0.3,0.5,0.5,0.5l3,0c0.3,0,0.5-0.2,0.5-0.5v-5.8c0-0.9,0.7-1.6,1.5-1.6c0.4,0,0.8,0.2,1.1,0.5c0.2,0.2,0.4,0.6,0.4,1.1
				v5.8c0,0.3,0.3,0.5,0.5,0.5h2.7c0.3,0,0.5-0.3,0.5-0.5v-7C30.8,20.1,29.1,18.4,27,18.4z"/>
		</g>
	</g>
</g>
</svg>
