<?xml version="1.0" encoding="UTF-8"?>
<!DOCTYPE svg  PUBLIC '-//W3C//DTD SVG 1.1//EN'  'http://www.w3.org/Graphics/SVG/1.1/DTD/svg11.dtd'>
<svg enable-background="new 0 0 330 468" version="1.1" viewBox="0 0 330 468" xml:space="preserve" xmlns="http://www.w3.org/2000/svg">

	
		
			<g fill="#333">
				<path d="m142.21 64.915c9.646 13.421 26.281 18.309 26.281 18.309 2.271-3.78 1.135-33.516 1.135-33.516 5.296 14.18 18.149 28.248 18.149 28.248 13.99-12.476 20.419-63.731 20.419-63.731h5.292c-0.946 35.074 18.341 62.313 18.341 62.313 6.425-3.972 18.711-25.977 18.711-25.977-1.694 6.424 1.139 35.154 1.139 35.154 1.513 0 27.222-18.173 27.222-18.173-2.163 6.264-4.347 12.53-6.509 18.802-0.713 2.058-1.436 4.153-2.19 6.239h0.038c-0.562 2.403-1.513 4.716-2.756 6.941-0.035 0.073-0.06 0.157-0.095 0.23h-0.049c-7.863 13.705-28.373 23.497-56.45 23.497-31.022 0-56.468-12.308-59.106-27.982-0.635-2.316-1.131-4.691-1.757-6.729-2.449-7.919-5.195-15.762-7.815-23.625z"/>
				<path d="m104.21 152.47c0 7.301 6.11 13.219 13.646 13.219s13.649-5.918 13.649-13.219c0-7.298-6.114-13.22-13.649-13.22s-13.646 5.922-13.646 13.22"/>
				<path d="m298.24 120.46c0 7.302 6.106 13.22 13.646 13.22 7.535 0 13.646-5.918 13.646-13.22 0-7.301-6.11-13.219-13.646-13.219-7.539 0-13.646 5.918-13.646 13.219"/>
				<path d="m252.23 364.49c0 7.301 6.113 13.223 13.646 13.223 7.539 0 13.649-5.922 13.649-13.223 0-7.302-6.11-13.216-13.649-13.216-7.533 0-13.646 5.914-13.646 13.216"/>
				<path d="m150.22 312.48c0 7.302 6.109 13.22 13.648 13.22 7.531 0 13.646-5.918 13.646-13.22 0-7.297-6.114-13.219-13.646-13.219-7.539 1e-3 -13.648 5.923-13.648 13.219"/>
				<path d="m218.23 382.49c0 7.297 6.11 13.223 13.646 13.223s13.646-5.926 13.646-13.223c0-7.299-6.11-13.216-13.646-13.216s-13.646 5.917-13.646 13.216"/>
				<path d="m218.23 262.48c0 7.298 6.11 13.212 13.646 13.212s13.646-5.914 13.646-13.212c0-7.302-6.11-13.22-13.646-13.22s-13.646 5.919-13.646 13.22"/>
				<path d="m267.31 180.78c0 7.305 6.114 13.226 13.649 13.226s13.645-5.921 13.645-13.226c0-7.295-6.109-13.213-13.645-13.213s-13.649 5.918-13.649 13.213"/>
				<path d="m200.32 141.11c0 3.63 3.04 6.575 6.781 6.575 3.748 0 6.788-2.945 6.788-6.575 0-3.626-3.04-6.57-6.788-6.57-3.741 0-6.781 2.944-6.781 6.57"/>
				<path d="m212.22 426.5c0 7.295 6.114 13.216 13.646 13.216 7.536 0 13.646-5.921 13.646-13.216 0-7.301-6.109-13.223-13.646-13.223-7.532 0-13.646 5.922-13.646 13.223"/>
				<path d="m53.629 430.24c0 7.707 6.446 13.953 14.411 13.953 7.958 0 14.407-6.246 14.407-13.953 0-7.706-6.449-13.959-14.407-13.959-7.965 0-14.411 6.253-14.411 13.959"/>
				<path d="m16.1 359.85c0 9.604 8.035 17.384 17.942 17.384 9.911 0 17.942-7.78 17.942-17.384 0-9.6-8.031-17.376-17.942-17.376-9.907 0-17.942 7.776-17.942 17.376"/>
				<path d="m90.213 118.47c0 7.298 6.104 13.216 13.642 13.216 7.539 0 13.649-5.918 13.649-13.216 0-7.305-6.11-13.22-13.649-13.22s-13.642 5.915-13.642 13.22"/>
				<path d="m130.88 403.98c0 9.799 8.199 17.743 18.313 17.743 10.11 0 18.31-7.944 18.31-17.743 0-9.792-8.199-17.739-18.31-17.739-10.114-1e-3 -18.313 7.947-18.313 17.739"/>
				<path d="m191.3 335.48c0 7.797 6.529 14.124 14.582 14.124s14.585-6.327 14.585-14.124c0-7.805-6.532-14.131-14.585-14.131s-14.582 6.327-14.582 14.131"/>
				<path d="m5.64 253.8c0 17.618 14.743 31.896 32.926 31.896 18.187 0 32.93-14.277 32.93-31.896 0-17.61-14.743-31.898-32.93-31.898-18.183-1e-3 -32.926 14.287-32.926 31.898"/>
				<path d="m191.7 227.45c0 7.284 6.1 13.195 13.617 13.195 7.521 0 13.621-5.911 13.621-13.195 0-7.29-6.1-13.198-13.621-13.198-7.517 0-13.617 5.908-13.617 13.198"/>
				<path d="m152.88 170.88c0 9.286 7.772 16.811 17.355 16.811 9.589 0 17.362-7.524 17.362-16.811 0-9.285-7.773-16.817-17.362-16.817-9.583 0-17.355 7.532-17.355 16.817"/>
				<path d="m116.88 219.95c0 9.799 8.199 17.743 18.31 17.743 10.113 0 18.313-7.944 18.313-17.743 0-9.8-8.199-17.739-18.313-17.739-10.111 0-18.31 7.939-18.31 17.739"/>
				<path d="m241.88 429.17c0 4.717 3.951 8.549 8.818 8.549 4.873 0 8.824-3.832 8.824-8.549 0-4.72-3.951-8.548-8.824-8.548-4.867 0-8.818 3.828-8.818 8.548"/>
				<path d="m249.88 449.18c0 4.717 3.951 8.542 8.821 8.542 4.874 0 8.825-3.825 8.825-8.542 0-4.719-3.951-8.552-8.825-8.552-4.87 0-8.821 3.833-8.821 8.552"/>
				<path d="m165.86 375.17c0 4.716 3.951 8.541 8.824 8.541 4.874 0 8.825-3.825 8.825-8.541 0-4.72-3.951-8.545-8.825-8.545-4.873 0-8.824 3.825-8.824 8.545"/>
				<path d="m182.64 295.86c0 4.717 3.951 8.545 8.824 8.545 4.87 0 8.821-3.828 8.821-8.545 0-4.72-3.951-8.552-8.821-8.552-4.873 1e-3 -8.824 3.833-8.824 8.552"/>
				<path d="m195.87 193.15c0 4.72 3.951 8.545 8.824 8.545 4.869 0 8.817-3.825 8.817-8.545 0-4.716-3.948-8.545-8.817-8.545-4.873 0-8.824 3.829-8.824 8.545"/>
				<path d="m237.88 285.16c0 4.716 3.948 8.545 8.821 8.545 4.866 0 8.825-3.829 8.825-8.545 0-4.721-3.959-8.549-8.825-8.549-4.873 0-8.821 3.829-8.821 8.549"/>
				<path d="m149.87 449.18c0 4.717 3.947 8.542 8.82 8.542 4.874 0 8.825-3.825 8.825-8.542 0-4.719-3.951-8.552-8.825-8.552-4.873 0-8.82 3.833-8.82 8.552"/>
				<path d="m227.88 233.15c0 4.72 3.944 8.549 8.817 8.549 4.87 0 8.821-3.829 8.821-8.549 0-4.717-3.951-8.549-8.821-8.549-4.873 1e-3 -8.817 3.833-8.817 8.549"/>
				<path d="m231.88 137.14c0 4.719 3.95 8.548 8.82 8.548s8.821-3.829 8.821-8.548c0-4.717-3.951-8.545-8.821-8.545s-8.82 3.828-8.82 8.545"/>
				<path d="m165.86 137.14c0 4.719 3.951 8.548 8.824 8.548 4.874 0 8.825-3.829 8.825-8.548 0-4.717-3.951-8.545-8.825-8.545-4.873 0-8.824 3.828-8.824 8.545"/>
				<path d="m133.84 160.02c0 4.716 3.948 8.545 8.821 8.545s8.82-3.829 8.82-8.545c0-4.72-3.947-8.545-8.82-8.545s-8.821 3.825-8.821 8.545"/>
				<path d="m109.86 359.16c0 4.72 3.948 8.545 8.821 8.545 4.874 0 8.821-3.825 8.821-8.545 0-4.719-3.947-8.548-8.821-8.548-4.872 0-8.821 3.829-8.821 8.548"/>
				<path d="m231.88 359.16c0 4.72 3.95 8.545 8.82 8.545s8.821-3.825 8.821-8.545c0-4.719-3.951-8.548-8.821-8.548s-8.82 3.829-8.82 8.548"/>
				<path d="m159.86 287.16c0 4.713 3.947 8.545 8.824 8.545 4.87 0 8.821-3.832 8.821-8.545 0-4.716-3.951-8.548-8.821-8.548-4.876 0-8.824 3.832-8.824 8.548"/>
				<path d="m205.87 455.18c0 4.716 3.955 8.545 8.821 8.545 4.873 0 8.821-3.829 8.821-8.545 0-4.72-3.948-8.546-8.821-8.546-4.866 0-8.821 3.826-8.821 8.546"/>
				<path d="m279.88 383.17c0 4.72 3.951 8.545 8.82 8.545 4.87 0 8.821-3.825 8.821-8.545 0-4.717-3.951-8.545-8.821-8.545-4.869 0-8.82 3.828-8.82 8.545"/>
				<path d="m113.86 381.17c0 4.716 3.951 8.545 8.825 8.545 4.87 0 8.821-3.829 8.821-8.545 0-4.72-3.951-8.549-8.821-8.549-4.873 0-8.825 3.829-8.825 8.549"/>
				<path d="m151.86 429.17c0 4.717 3.951 8.549 8.821 8.549 4.873 0 8.824-3.832 8.824-8.549 0-4.72-3.951-8.548-8.824-8.548-4.87 0-8.821 3.828-8.821 8.548"/>
				<path d="m117.86 453.18c0 4.713 3.954 8.542 8.828 8.542 4.87 0 8.817-3.829 8.817-8.542 0-4.723-3.947-8.552-8.817-8.552-4.873 0-8.828 3.829-8.828 8.552"/>
				<path d="m265.88 339.16c0 4.72 3.947 8.548 8.821 8.548 4.873 0 8.821-3.828 8.821-8.548s-3.948-8.545-8.821-8.545c-4.874 0-8.821 3.825-8.821 8.545"/>
				<path d="m231.12 456.24c0 2.477 2.074 4.486 4.636 4.486 2.557 0 4.636-2.01 4.636-4.486 0-2.48-2.079-4.492-4.636-4.492-2.562 0-4.636 2.012-4.636 4.492"/>
				<path d="m191.12 432.23c0 2.48 2.075 4.489 4.633 4.489 2.561 0 4.635-2.009 4.635-4.489s-2.074-4.489-4.635-4.489c-2.558 0-4.633 2.009-4.633 4.489"/>
				<path d="m213.12 308.22c0 2.477 2.078 4.489 4.636 4.489s4.632-2.013 4.632-4.489c0-2.478-2.074-4.485-4.632-4.485s-4.636 2.007-4.636 4.485"/>
				<path d="m153.12 233.45c0 2.903 2.428 5.25 5.418 5.25 2.997 0 5.425-2.347 5.425-5.25s-2.428-5.254-5.425-5.254c-2.99 0-5.418 2.351-5.418 5.254"/>
				<path d="m201.12 254.22c0 2.474 2.075 4.489 4.636 4.489 2.558 0 4.636-2.016 4.636-4.489 0-2.48-2.078-4.496-4.636-4.496-2.561 0-4.636 2.015-4.636 4.496"/>
				<path d="m192.97 156.77c0 1.324 1.107 2.393 2.474 2.393s2.478-1.068 2.478-2.393-1.111-2.396-2.478-2.396-2.474 1.072-2.474 2.396"/>
				<path d="m211.27 257.43c0 1.328 1.111 2.4 2.477 2.4s2.474-1.072 2.474-2.4c0-1.323-1.107-2.396-2.474-2.396-1.366-1e-3 -2.477 1.072-2.477 2.396"/>
				<path d="m223.47 298.61c0 1.32 1.11 2.393 2.473 2.393 1.366 0 2.478-1.072 2.478-2.393 0-1.324-1.111-2.4-2.478-2.4-1.363 0-2.473 1.076-2.473 2.4"/>
				<path d="m229.57 287.93c0 1.323 1.107 2.396 2.47 2.396 1.37 0 2.478-1.073 2.478-2.396 0-1.324-1.107-2.397-2.478-2.397-1.362-1e-3 -2.47 1.072-2.47 2.397"/>
				<path d="m244.83 330.64c0 1.324 1.107 2.396 2.473 2.396s2.478-1.072 2.478-2.396-1.111-2.393-2.478-2.393c-1.365 0-2.473 1.069-2.473 2.393"/>
				<path d="m231.1 345.89c0 1.327 1.11 2.403 2.477 2.403 1.37 0 2.474-1.076 2.474-2.403 0-1.32-1.104-2.393-2.474-2.393-1.367 0-2.477 1.072-2.477 2.393"/>
				<path d="m249.4 347.42c0 1.324 1.107 2.396 2.474 2.396s2.478-1.072 2.478-2.396c0-1.328-1.111-2.4-2.478-2.4s-2.474 1.072-2.474 2.4"/>
				<path d="m231.1 321.48c0 1.324 1.11 2.396 2.477 2.396 1.37 0 2.474-1.072 2.474-2.396 0-1.32-1.104-2.394-2.474-2.394-1.367 1e-3 -2.477 1.074-2.477 2.394"/>
				<path d="m215.84 318.44c0 1.324 1.111 2.396 2.478 2.396s2.474-1.072 2.474-2.396c0-1.327-1.107-2.399-2.474-2.399s-2.478 1.071-2.478 2.399"/>
				<path d="m185.35 347.54c0.066 1.32 1.226 2.341 2.592 2.268 1.362-0.066 2.414-1.195 2.348-2.516s-1.226-2.341-2.592-2.271c-1.36 0.067-2.415 1.199-2.348 2.519"/>
				<path d="m183.82 335.34c0.066 1.327 1.233 2.34 2.596 2.273 1.365-0.073 2.417-1.197 2.351-2.521-0.066-1.32-1.226-2.338-2.592-2.271-1.366 0.07-2.414 1.195-2.355 2.519"/>
				<path d="m188.4 321.61c0.063 1.32 1.229 2.334 2.592 2.268 1.362-0.07 2.418-1.195 2.352-2.522-0.066-1.317-1.23-2.334-2.596-2.268-1.363 0.07-2.414 1.198-2.348 2.522"/>
				<path d="m150.27 349.06c0.066 1.321 1.227 2.338 2.589 2.271 1.362-0.07 2.418-1.198 2.352-2.522-0.063-1.32-1.227-2.334-2.596-2.268-1.364 0.067-2.412 1.196-2.345 2.519"/>
				<path d="m135.02 370.42c0.066 1.32 1.223 2.333 2.589 2.267 1.365-0.066 2.42-1.194 2.351-2.519-0.066-1.32-1.227-2.337-2.589-2.271-1.366 0.071-2.418 1.202-2.351 2.523"/>
				<path d="m168.57 388.72c0.066 1.32 1.227 2.338 2.589 2.271 1.362-0.07 2.421-1.199 2.352-2.522-0.066-1.321-1.227-2.334-2.593-2.268-1.361 0.07-2.414 1.198-2.348 2.519"/>
				<path d="m179.24 411.6c0.07 1.32 1.229 2.337 2.593 2.271 1.365-0.069 2.417-1.198 2.351-2.522-0.066-1.32-1.229-2.333-2.592-2.267s-2.414 1.193-2.352 2.518"/>
				<path d="m214.32 396.34c0.066 1.327 1.227 2.341 2.589 2.271 1.366-0.066 2.421-1.198 2.352-2.515-0.066-1.321-1.227-2.341-2.589-2.271-1.366 0.066-2.418 1.197-2.352 2.515"/>
				<path d="m212.8 440.58c0.066 1.32 1.227 2.337 2.589 2.271 1.369-0.07 2.421-1.198 2.354-2.522-0.063-1.32-1.227-2.334-2.593-2.268-1.365 0.066-2.417 1.195-2.35 2.519"/>
				<path d="m240.25 442.1c0.069 1.324 1.229 2.337 2.592 2.271 1.365-0.066 2.417-1.194 2.351-2.519-0.066-1.323-1.229-2.337-2.589-2.271-1.366 0.07-2.417 1.202-2.354 2.519"/>
				<path d="m170.09 437.52c0.066 1.321 1.227 2.338 2.593 2.271 1.362-0.073 2.417-1.198 2.347-2.522-0.059-1.324-1.226-2.337-2.588-2.271-1.367 0.07-2.419 1.202-2.352 2.522"/>
				<path d="m199.07 355.17c0.07 1.32 1.229 2.334 2.589 2.268 1.366-0.07 2.421-1.195 2.354-2.522-0.066-1.321-1.23-2.334-2.596-2.268-1.361 0.07-2.409 1.198-2.347 2.522"/>
				<path d="m196.02 388.72c0.066 1.32 1.226 2.338 2.589 2.271 1.365-0.07 2.421-1.199 2.351-2.522-0.063-1.321-1.226-2.334-2.589-2.268-1.365 0.07-2.417 1.198-2.351 2.519"/>
				<path d="m205.18 407.02c0.066 1.328 1.226 2.341 2.588 2.274 1.362-0.069 2.418-1.198 2.352-2.522-0.066-1.316-1.227-2.334-2.592-2.268-1.364 0.066-2.415 1.195-2.348 2.516"/>
				<path d="m170.09 417.69c0.066 1.324 1.227 2.341 2.593 2.274 1.362-0.069 2.417-1.194 2.347-2.522-0.059-1.32-1.226-2.333-2.588-2.267-1.367 0.07-2.419 1.195-2.352 2.515"/>
				<path d="m183.82 223.88c0 1.324 1.107 2.396 2.473 2.396s2.478-1.072 2.478-2.396c0-1.32-1.111-2.4-2.478-2.4-1.365 0-2.473 1.08-2.473 2.4"/>
				<path d="m229.57 197.95c0 1.327 1.107 2.399 2.47 2.399 1.37 0 2.478-1.072 2.478-2.399 0-1.324-1.107-2.396-2.478-2.396-1.362 0-2.47 1.072-2.47 2.396"/>
				<path d="m255.5 194.9c0 1.324 1.104 2.396 2.474 2.396 1.362 0 2.473-1.072 2.473-2.396 0-1.32-1.11-2.393-2.473-2.393-1.371 1e-3 -2.474 1.073-2.474 2.393"/>
				<path d="m183.82 188.23c0 2.479 2.075 4.488 4.636 4.488s4.636-2.009 4.636-4.488c0-2.48-2.075-4.489-4.636-4.489s-4.636 2.009-4.636 4.489"/>
				<path d="m200.59 163.83c0 2.48 2.078 4.489 4.636 4.489s4.636-2.009 4.636-4.489-2.078-4.489-4.636-4.489-4.636 2.009-4.636 4.489"/>
				<path d="m218.9 188.23c0 2.479 2.075 4.488 4.632 4.488 2.562 0 4.64-2.009 4.64-4.488 0-2.48-2.078-4.489-4.64-4.489-2.556 0-4.632 2.009-4.632 4.489"/>
				<path d="m153.31 208.06c0 2.477 2.076 4.486 4.633 4.486 2.561 0 4.636-2.01 4.636-4.486 0-2.483-2.075-4.492-4.636-4.492-2.556-1e-3 -4.633 2.008-4.633 4.492"/>
				<path d="m179.24 208.06c0 2.477 2.075 4.486 4.633 4.486 2.561 0 4.636-2.01 4.636-4.486 0-2.483-2.075-4.492-4.636-4.492-2.558-1e-3 -4.633 2.008-4.633 4.492"/>
				<path d="m283.13 120.2c0 2.48 2.079 4.489 4.636 4.489 2.558 0 4.64-2.009 4.64-4.489 0-2.479-2.082-4.489-4.64-4.489-2.557 0-4.636 2.01-4.636 4.489"/>
				<path d="m252.63 143.08c0 2.477 2.075 4.489 4.636 4.489 2.558 0 4.636-2.013 4.636-4.489 0-2.48-2.078-4.493-4.636-4.493-2.561 0-4.636 2.013-4.636 4.493"/>
				<path d="m257.2 158.33c0 2.477 2.075 4.488 4.633 4.488 2.557 0 4.639-2.012 4.639-4.488 0-2.484-2.082-4.49-4.639-4.49-2.558 0-4.633 2.006-4.633 4.49"/>
				<path d="m240.42 194.93c0 2.479 2.082 4.489 4.636 4.489 2.561 0 4.639-2.01 4.639-4.489 0-2.48-2.078-4.489-4.639-4.489-2.554-1e-3 -4.636 2.008-4.636 4.489"/>
				<path d="m173.69 326.02c0 2.48 2.075 4.49 4.632 4.49 2.561 0 4.637-2.01 4.637-4.49 0-2.479-2.076-4.492-4.637-4.492-2.556 0-4.632 2.013-4.632 4.492"/>
				<path d="m157.12 360.23c0 2.48 2.075 4.489 4.632 4.489 2.561 0 4.636-2.009 4.636-4.489s-2.075-4.492-4.636-4.492c-2.557-1e-3 -4.632 2.011-4.632 4.492"/>
				<path d="m190.1 375.16c0 1.81 1.52 3.284 3.392 3.284 1.873 0 3.393-1.475 3.393-3.284 0-1.816-1.52-3.287-3.393-3.287-1.872 0-3.392 1.471-3.392 3.287"/>
				<path d="m173.32 359.9c0 1.816 1.523 3.291 3.393 3.291 1.876 0 3.396-1.475 3.396-3.291 0-1.81-1.52-3.284-3.396-3.284-1.869 0-3.393 1.475-3.393 3.284"/>
				<path d="m201.12 286.21c0 2.484 2.075 4.493 4.636 4.493 2.558 0 4.636-2.009 4.636-4.493 0-2.479-2.078-4.485-4.636-4.485-2.561 0-4.636 2.005-4.636 4.485"/>
				<path d="m195.02 275.54c0 2.483 2.075 4.493 4.636 4.493 2.558 0 4.633-2.01 4.633-4.493 0-2.477-2.075-4.485-4.633-4.485-2.561 0-4.636 2.009-4.636 4.485"/>
				<path d="m203.12 382.23c0 2.48 2.075 4.488 4.633 4.488 2.557 0 4.635-2.008 4.635-4.488s-2.078-4.489-4.635-4.489c-2.558-1e-3 -4.633 2.008-4.633 4.489"/>
				<path d="m137.11 378.23c0 2.48 2.074 4.488 4.635 4.488 2.558 0 4.64-2.008 4.64-4.488s-2.082-4.489-4.64-4.489c-2.56-1e-3 -4.635 2.008-4.635 4.489"/>
				<path d="m223.12 446.24c0 2.474 2.078 4.489 4.636 4.489s4.64-2.016 4.64-4.489c0-2.48-2.082-4.492-4.64-4.492s-4.636 2.012-4.636 4.492"/>
				<path d="m252.07 382.23c0 2.48 2.076 4.488 4.633 4.488 2.561 0 4.64-2.008 4.64-4.488s-2.079-4.489-4.64-4.489c-2.557-1e-3 -4.633 2.008-4.633 4.489"/>
				<path d="m203.12 396.23c0 2.477 2.075 4.492 4.633 4.492 2.557 0 4.635-2.016 4.635-4.492 0-2.478-2.078-4.493-4.635-4.493-2.558 0-4.633 2.016-4.633 4.493"/>
				<path d="m133.11 360.23c0 2.48 2.075 4.489 4.632 4.489 2.562 0 4.64-2.009 4.64-4.489s-2.078-4.492-4.64-4.492c-2.556-1e-3 -4.632 2.011-4.632 4.492"/>
				<path d="m151.11 375.25c0 3.021 2.525 5.468 5.646 5.468 3.112 0 5.646-2.446 5.646-5.468s-2.533-5.467-5.646-5.467c-3.12 0-5.646 2.446-5.646 5.467"/>
				<path d="m151.11 335.37c0 2.951 2.474 5.341 5.517 5.341 3.042 0 5.516-2.39 5.516-5.341 0-2.956-2.474-5.346-5.516-5.346-3.043 0-5.517 2.39-5.517 5.346"/>
				<path d="m222.45 331.18c0 2.478 2.078 4.485 4.632 4.485 2.561 0 4.64-2.008 4.64-4.485 0-2.483-2.079-4.492-4.64-4.492-2.554 0-4.632 2.008-4.632 4.492"/>
				<path d="m121.11 114.2c0 2.477 2.074 4.492 4.635 4.492 2.562 0 4.633-2.016 4.633-4.492 0-2.48-2.071-4.486-4.633-4.486-2.56 0-4.635 2.006-4.635 4.486"/>
				<path d="m185.12 356.23c0 2.48 2.075 4.489 4.633 4.489 2.561 0 4.639-2.009 4.639-4.489s-2.078-4.489-4.639-4.489c-2.558-1e-3 -4.633 2.008-4.633 4.489"/>
				<path d="m229.12 300.22c0 2.477 2.075 4.489 4.636 4.489 2.558 0 4.636-2.013 4.636-4.489 0-2.48-2.078-4.493-4.636-4.493-2.561 0-4.636 2.012-4.636 4.493"/>
				<path d="m251.13 232.21c0 2.484 2.075 4.492 4.633 4.492 2.561 0 4.639-2.008 4.639-4.492 0-2.477-2.078-4.485-4.639-4.485-2.558 0-4.633 2.008-4.633 4.485"/>
				<path d="m207.12 272.22c0 2.478 2.079 4.489 4.637 4.489 2.561 0 4.635-2.012 4.635-4.489 0-2.48-2.074-4.489-4.635-4.489-2.558 0-4.637 2.008-4.637 4.489"/>
				<path d="m213.22 244.77c0 2.478 2.075 4.482 4.636 4.482s4.632-2.005 4.632-4.482c0-2.48-2.071-4.492-4.632-4.492s-4.636 2.011-4.636 4.492"/>
				<path d="m202.54 298.48c0 3.134 2.623 5.677 5.858 5.677s5.854-2.543 5.854-5.677-2.619-5.67-5.854-5.67-5.858 2.537-5.858 5.67"/>
				<path d="m213.12 170.2c0 2.483 2.078 4.489 4.636 4.489s4.632-2.006 4.632-4.489c0-2.48-2.074-4.489-4.632-4.489s-4.636 2.009-4.636 4.489"/>
				<path d="m220.75 147.32c0 2.483 2.075 4.489 4.636 4.489 2.558 0 4.633-2.006 4.633-4.489 0-2.48-2.075-4.489-4.633-4.489-2.561 0-4.636 2.009-4.636 4.489"/>
				<path d="m222.27 212.91c0 2.477 2.075 4.485 4.636 4.485 2.557 0 4.636-2.009 4.636-4.485 0-2.48-2.079-4.492-4.636-4.492-2.56 0-4.636 2.012-4.636 4.492"/>
				<path d="m191.12 170.2c0 2.483 2.075 4.489 4.633 4.489 2.561 0 4.635-2.006 4.635-4.489 0-2.48-2.074-4.489-4.635-4.489-2.558 0-4.633 2.009-4.633 4.489"/>
				<path d="m181.97 150.38c0 2.477 2.071 4.488 4.632 4.488s4.64-2.012 4.64-4.488c0-2.48-2.079-4.489-4.64-4.489s-4.632 2.008-4.632 4.489"/>
				<path d="m146.89 193.09c0 2.477 2.075 4.485 4.633 4.485 2.561 0 4.639-2.009 4.639-4.485 0-2.484-2.078-4.492-4.639-4.492-2.558 0-4.633 2.008-4.633 4.492"/>
				<path d="m172.82 194.61c0 2.48 2.072 4.488 4.633 4.488 2.558 0 4.636-2.008 4.636-4.488s-2.078-4.489-4.636-4.489c-2.56 0-4.633 2.009-4.633 4.489"/>
				<path d="m271.13 156.2c0 2.477 2.079 4.492 4.636 4.492 2.561 0 4.636-2.016 4.636-4.492 0-2.478-2.075-4.489-4.636-4.489-2.557 0-4.636 2.012-4.636 4.489"/>
				<path d="m275.7 137.9c0 2.477 2.078 4.492 4.635 4.492 2.561 0 4.637-2.016 4.637-4.492 0-2.48-2.076-4.49-4.637-4.49-2.557 0-4.635 2.01-4.635 4.49"/>
				<path d="m180.32 313.58c0 3.224 2.701 5.845 6.03 5.845 3.333 0 6.033-2.621 6.033-5.845 0-3.231-2.7-5.849-6.033-5.849-3.329 1e-3 -6.03 2.618-6.03 5.849"/>
				<path d="m181.12 281.64c0 2.477 2.075 4.485 4.636 4.485 2.558 0 4.633-2.009 4.633-4.485 0-2.48-2.075-4.489-4.633-4.489-2.561-1e-3 -4.636 2.008-4.636 4.489"/>
				<path d="m174.82 239.1c0 3.092 2.596 5.604 5.785 5.604s5.778-2.512 5.778-5.604-2.589-5.6-5.778-5.6-5.785 2.508-5.785 5.6"/>
				<path d="m205.43 415.35c0 1.865 1.562 3.371 3.483 3.371s3.479-1.506 3.479-3.371c0-1.862-1.558-3.371-3.479-3.371-1.922 0-3.483 1.508-3.483 3.371"/>
				<path d="m170.35 404.67c0 1.861 1.561 3.371 3.486 3.371 1.914 0 3.476-1.51 3.476-3.371 0-1.862-1.562-3.371-3.476-3.371-1.926 0-3.486 1.509-3.486 3.371"/>
				<path d="m219.16 366.55c0 1.862 1.558 3.371 3.479 3.371s3.482-1.509 3.482-3.371-1.562-3.374-3.482-3.374c-1.921 0-3.479 1.512-3.479 3.374"/>
				<path d="m235.93 410.2c0 2.382 1.994 4.314 4.454 4.314s4.458-1.933 4.458-4.314c0-2.387-1.998-4.322-4.458-4.322s-4.454 1.936-4.454 4.322"/>
				<path d="m243.56 372.65c0 1.866 1.562 3.371 3.483 3.371 1.918 0 3.476-1.505 3.476-3.371 0-1.862-1.558-3.371-3.476-3.371-1.922-1e-3 -3.483 1.508-3.483 3.371"/>
				<path d="m137.11 456.24c0 2.477 2.074 4.486 4.635 4.486 2.558 0 4.64-2.01 4.64-4.486 0-2.48-2.082-4.492-4.64-4.492-2.56 0-4.635 2.012-4.635 4.492"/>
				<path d="m187.12 414.23c0 2.48 2.075 4.489 4.637 4.489 2.557 0 4.632-2.009 4.632-4.489 0-2.477-2.075-4.492-4.632-4.492-2.562 0-4.637 2.016-4.637 4.492"/>
				<path d="m293.13 364.23c0 2.48 2.075 4.489 4.636 4.489 2.557 0 4.636-2.009 4.636-4.489s-2.079-4.492-4.636-4.492c-2.561-1e-3 -4.636 2.011-4.636 4.492"/>
				<path d="m273.98 66.818c0 2.477 2.079 4.489 4.636 4.489 2.558 0 4.636-2.013 4.636-4.489 0-2.483-2.078-4.488-4.636-4.488-2.557 0-4.636 2.005-4.636 4.488"/>
				<path d="m245.15 51.238c0 2.483 2.075 4.492 4.637 4.492 2.557 0 4.632-2.009 4.632-4.492 0-2.478-2.075-4.486-4.632-4.486-2.561 0-4.637 2.009-4.637 4.486"/>
				<path d="m163.67 49.719c0 2.477 2.075 4.485 4.636 4.485 2.558 0 4.636-2.009 4.636-4.485 0-2.484-2.078-4.493-4.636-4.493-2.561 0-4.636 2.008-4.636 4.493"/>
				<path d="m137.73 66.494c0 2.477 2.082 4.488 4.636 4.488 2.558 0 4.64-2.012 4.64-4.488 0-2.48-2.082-4.493-4.64-4.493-2.554 0-4.636 2.013-4.636 4.493"/>
			</g>
		
		
			<g fill="#333">
				<path d="m170.22 262.48c0 7.298 6.109 13.212 13.638 13.212 7.539 0 13.652-5.914 13.652-13.212 0-7.302-6.113-13.22-13.652-13.22-7.529 1e-3 -13.638 5.919-13.638 13.22"/>
				<path d="m8.291 314.04c0 12.018 10.062 21.761 22.467 21.761 12.408 0 22.47-9.743 22.47-21.761 0-12.021-10.062-21.764-22.47-21.764-12.405 0-22.467 9.742-22.467 21.764"/>
				<path d="m233.87 213.15c0 4.717 3.951 8.545 8.821 8.545 4.877 0 8.824-3.828 8.824-8.545 0-4.719-3.947-8.548-8.824-8.548-4.87 1e-3 -8.821 3.83-8.821 8.548"/>
				
					<path d="m30.102 399.69c0 8.591 7.186 15.55 16.052 15.55s16.053-6.959 16.053-15.55c0-8.58-7.187-15.55-16.053-15.55s-16.052 6.97-16.052 15.55"/>
					<path d="m130.21 128.46c0 7.302 6.109 13.223 13.646 13.223 7.538 0 13.648-5.921 13.648-13.223 0-7.298-6.11-13.219-13.648-13.219-7.537 0-13.646 5.921-13.646 13.219"/>
					<path d="m176.22 452.5c0 7.305 6.11 13.22 13.642 13.22 7.543 0 13.646-5.915 13.646-13.22 0-7.297-6.103-13.215-13.646-13.215-7.532 0-13.642 5.918-13.642 13.215"/>
					<path d="m85.637 446.5c0 7.302 6.106 13.216 13.642 13.216s13.649-5.914 13.649-13.216c0-7.301-6.114-13.219-13.649-13.219s-13.642 5.918-13.642 13.219"/>
					<path d="m122.22 340.49c0 7.294 6.109 13.216 13.642 13.216 7.535 0 13.648-5.922 13.648-13.216 0-7.302-6.113-13.223-13.648-13.223-7.533 1e-3 -13.642 5.921-13.642 13.223"/>
					<path d="m236.23 312.48c0 7.302 6.11 13.22 13.646 13.22s13.649-5.918 13.649-13.22c0-7.297-6.114-13.219-13.649-13.219s-13.646 5.923-13.646 13.219"/>
					<path d="m118.21 182.47c0 7.302 6.109 13.223 13.642 13.223 7.542 0 13.649-5.921 13.649-13.223 0-7.294-6.107-13.212-13.649-13.212-7.533 0-13.642 5.918-13.642 13.212"/>
					<path d="m288.23 152.47c0 7.301 6.117 13.219 13.648 13.219 7.535 0 13.646-5.918 13.646-13.219 0-7.298-6.11-13.22-13.646-13.22-7.53 0-13.648 5.922-13.648 13.22"/>
					<path d="m256.9 215.95c0 9.796 8.202 17.739 18.313 17.739 10.113 0 18.313-7.943 18.313-17.739 0-9.792-8.199-17.739-18.313-17.739-10.11 0-18.313 7.947-18.313 17.739"/>
					<path d="m225.71 170.88c0 9.286 7.773 16.811 17.355 16.811 9.586 0 17.359-7.524 17.359-16.811 0-9.285-7.773-16.817-17.359-16.817-9.582 0-17.355 7.532-17.355 16.817"/>
					<path d="m246.9 405.98c0 9.796 8.202 17.74 18.316 17.74 10.11 0 18.31-7.944 18.31-17.74 0-9.792-8.199-17.743-18.31-17.743-10.113-1e-3 -18.316 7.951-18.316 17.743"/>
					<path d="m283.88 347.16c0 4.72 3.947 8.548 8.82 8.548 4.874 0 8.821-3.828 8.821-8.548 0-4.716-3.947-8.545-8.821-8.545-4.873 0-8.82 3.829-8.82 8.545"/>
					<path d="m164.34 343.14c0 4.716 3.947 8.542 8.817 8.542 4.877 0 8.825-3.826 8.825-8.542 0-4.724-3.948-8.552-8.825-8.552-4.87 0-8.817 3.828-8.817 8.552"/>
					<path d="m161.87 219.15c0 4.717 3.951 8.541 8.824 8.541 4.866 0 8.821-3.824 8.821-8.541 0-4.72-3.955-8.549-8.821-8.549-4.873 1e-3 -8.824 3.83-8.824 8.549"/>
					<path d="m259.88 129.14c0 4.719 3.951 8.545 8.821 8.545s8.821-3.826 8.821-8.545c0-4.72-3.951-8.545-8.821-8.545s-8.821 3.825-8.821 8.545"/>
					<path d="m177.87 397.17c0 4.717 3.948 8.542 8.821 8.542 4.87 0 8.821-3.825 8.821-8.542 0-4.723-3.951-8.552-8.821-8.552-4.873 0-8.821 3.829-8.821 8.552"/>
					<path d="m199.87 367.17c0 4.713 3.951 8.541 8.821 8.541 4.869 0 8.82-3.828 8.82-8.541 0-4.723-3.951-8.549-8.82-8.549-4.87 0-8.821 3.826-8.821 8.549"/>
					<path d="m171.86 427.17c0 4.719 3.951 8.548 8.824 8.548s8.824-3.829 8.824-8.548c0-4.721-3.951-8.545-8.824-8.545s-8.824 3.824-8.824 8.545"/>
					<path d="m137.11 442.24c0 2.478 2.074 4.489 4.635 4.489 2.558 0 4.64-2.012 4.64-4.489 0-2.48-2.082-4.492-4.64-4.492-2.56 0-4.635 2.012-4.635 4.492"/>
					<path d="m236.55 340.7c0 2.48 2.075 4.489 4.636 4.489 2.554 0 4.633-2.009 4.633-4.489s-2.079-4.493-4.633-4.493c-2.561 0-4.636 2.013-4.636 4.493"/>
					<path d="m203.64 152.2c0 1.32 1.107 2.393 2.471 2.393 1.373 0 2.477-1.072 2.477-2.393 0-1.324-1.104-2.396-2.477-2.396-1.364 0-2.471 1.072-2.471 2.396"/>
					<path d="m202.12 265.06c0 1.327 1.107 2.396 2.478 2.396 1.365 0 2.473-1.069 2.473-2.396 0-1.324-1.107-2.394-2.473-2.394-1.37 0-2.478 1.069-2.478 2.394"/>
					<path d="m220.42 347.42c0 1.324 1.11 2.396 2.477 2.396 1.362 0 2.474-1.072 2.474-2.396 0-1.328-1.111-2.4-2.474-2.4-1.367 0-2.477 1.072-2.477 2.4"/>
					<path d="m225 313.86c0 1.324 1.107 2.396 2.474 2.396 1.365 0 2.477-1.072 2.477-2.396s-1.111-2.396-2.477-2.396c-1.367 0-2.474 1.072-2.474 2.396"/>
					<path d="m229.57 400.92c0.066 1.32 1.229 2.337 2.593 2.268 1.369-0.07 2.421-1.195 2.351-2.52-0.066-1.32-1.226-2.337-2.589-2.268-1.365 0.067-2.421 1.196-2.355 2.52"/>
					<path d="m241.78 396.34c0.066 1.327 1.227 2.341 2.586 2.271 1.365-0.066 2.424-1.198 2.354-2.515-0.065-1.321-1.226-2.341-2.595-2.271-1.362 0.066-2.411 1.197-2.345 2.515"/>
					<path d="m267.7 382.62c0.065 1.32 1.229 2.338 2.588 2.271 1.369-0.07 2.421-1.202 2.354-2.522-0.066-1.321-1.229-2.334-2.596-2.268-1.362 0.067-2.412 1.195-2.346 2.519"/>
					<path d="m185.35 384.15c0.066 1.32 1.226 2.333 2.592 2.267 1.362-0.069 2.414-1.194 2.348-2.522-0.066-1.316-1.226-2.333-2.592-2.267-1.36 0.069-2.415 1.198-2.348 2.522"/>
					<path d="m196.02 407.02c0.066 1.328 1.226 2.341 2.589 2.274 1.365-0.069 2.421-1.198 2.351-2.522-0.063-1.316-1.226-2.334-2.589-2.268-1.365 0.066-2.417 1.195-2.351 2.516"/>
					<path d="m221.95 226.93c0 1.32 1.107 2.396 2.474 2.396s2.474-1.076 2.474-2.396c0-1.328-1.107-2.4-2.474-2.4s-2.474 1.072-2.474 2.4"/>
					<path d="m290.58 133.89c0 1.32 1.107 2.396 2.473 2.396s2.477-1.076 2.477-2.396c0-1.324-1.11-2.396-2.477-2.396-1.365-1e-3 -2.473 1.071-2.473 2.396"/>
					<path d="m211.27 157.73c0 2.48 2.079 4.489 4.636 4.489 2.562 0 4.636-2.009 4.636-4.489 0-2.483-2.074-4.489-4.636-4.489-2.557-1e-3 -4.636 2.005-4.636 4.489"/>
					<path d="m214.32 200.43c0 2.477 2.075 4.489 4.632 4.489 2.561 0 4.636-2.013 4.636-4.489 0-2.48-2.075-4.489-4.636-4.489-2.557-1e-3 -4.632 2.008-4.632 4.489"/>
					<path d="m159.41 198.91c0 2.48 2.076 4.488 4.633 4.488 2.561 0 4.64-2.008 4.64-4.488s-2.079-4.489-4.64-4.489c-2.557 0-4.633 2.009-4.633 4.489"/>
					<path d="m217.12 286.21c0 2.484 2.079 4.493 4.636 4.493 2.562 0 4.64-2.009 4.64-4.493 0-2.479-2.078-4.485-4.64-4.485-2.557 0-4.636 2.005-4.636 4.485"/>
					<path d="m219.12 406.23c0 2.48 2.075 4.489 4.636 4.489s4.636-2.009 4.636-4.489-2.075-4.489-4.636-4.489-4.636 2.009-4.636 4.489"/>
					<path d="m119.1 396.23c0 2.477 2.082 4.492 4.64 4.492 2.557 0 4.632-2.016 4.632-4.492 0-2.478-2.075-4.493-4.632-4.493-2.558 0-4.64 2.016-4.64 4.493"/>
					<path d="m145.87 364.48c0 1.81 1.52 3.284 3.392 3.284 1.873 0 3.389-1.475 3.389-3.284 0-1.816-1.516-3.291-3.389-3.291-1.872 0-3.392 1.475-3.392 3.291"/>
					<path d="m203.12 436.23c0 2.48 2.075 4.489 4.633 4.489 2.557 0 4.635-2.009 4.635-4.489s-2.078-4.489-4.635-4.489c-2.558 0-4.633 2.009-4.633 4.489"/>
					<path d="m219.12 356.23c0 2.48 2.075 4.489 4.636 4.489s4.636-2.009 4.636-4.489-2.075-4.489-4.636-4.489-4.636 2.008-4.636 4.489"/>
					<path d="m199.7 312.8c0 2.483 2.075 4.489 4.633 4.489 2.557 0 4.632-2.006 4.632-4.489 0-2.48-2.075-4.493-4.632-4.493-2.558 0-4.633 2.012-4.633 4.493"/>
					<path d="m204.88 179.32c0 1.652 1.384 2.997 3.092 2.997 1.701 0 3.085-1.345 3.085-2.997 0-1.649-1.384-2.99-3.085-2.99-1.708 0-3.092 1.341-3.092 2.99"/>
					<path d="m195.69 208.34c0 2.477 2.075 4.489 4.632 4.489 2.561 0 4.636-2.013 4.636-4.489 0-2.48-2.075-4.489-4.636-4.489-2.556 0-4.632 2.008-4.632 4.489"/>
					<path d="m148.41 148.85c0 2.477 2.078 4.493 4.636 4.493 2.561 0 4.636-2.017 4.636-4.493s-2.075-4.488-4.636-4.488c-2.558-1e-3 -4.636 2.011-4.636 4.488"/>
					<path d="m190.84 246.32c0 2.478 2.078 4.489 4.636 4.489s4.636-2.012 4.636-4.489c0-2.48-2.078-4.492-4.636-4.492s-4.636 2.012-4.636 4.492"/>
					<path d="m197.8 422.98c0 1.858 1.559 3.367 3.479 3.367 1.922 0 3.479-1.509 3.479-3.367 0-1.866-1.558-3.375-3.479-3.375s-3.479 1.509-3.479 3.375"/>
					<path d="m281.69 366.55c0 1.862 1.562 3.371 3.479 3.371 1.922 0 3.479-1.509 3.479-3.371s-1.558-3.374-3.479-3.374c-1.917 0-3.479 1.512-3.479 3.374"/>
					<path d="m253.13 338.22c0 2.477 2.075 4.485 4.636 4.485 2.558 0 4.637-2.009 4.637-4.485s-2.079-4.492-4.637-4.492c-2.561-1e-3 -4.636 2.015-4.636 4.492"/>
					<path d="m203.38 11.476c0 3.626 3.036 6.567 6.777 6.567 3.749 0 6.788-2.941 6.788-6.567 0-3.63-3.039-6.571-6.788-6.571-3.741-1e-3 -6.777 2.941-6.777 6.571"/>
				
			</g>
		
	

</svg>
