<svg xmlns="http://www.w3.org/2000/svg" id="Linkedin" width="42" height="42" viewBox="0 0 42 42">
    <defs>
        <style>
            .cls-1{fill:#333}
        </style>
    </defs>
    <g id="linkedin_2_" transform="translate(13.017 12.22)">
        <g id="Group_17">
            <g id="Group_16">
                <path id="Path_243" d="M2.144 5.2a2.135 2.135 0 0 0-1.512.623A2.106 2.106 0 0 0 0 7.324a2.128 2.128 0 0 0 .643 1.531 2.085 2.085 0 0 0 1.482.6h.047A2.131 2.131 0 0 0 2.144 5.2z" class="cls-1" transform="translate(0 -5.195)"/>
            </g>
        </g>
    </g>
    <path id="Path_244" d="M11.463 158.941H9.312a.789.789 0 0 0-.776.8v9.312a.808.808 0 0 0 .8.8h2.129a.8.8 0 0 0 .8-.78v-9.33a.809.809 0 0 0-.802-.802z" class="cls-1" transform="translate(4.748 -141.927)"/>
    <g id="Component_4_1">
        <g id="Ellipse_1" fill="none" stroke="#333" stroke-width="3px">
            <circle cx="21" cy="21" r="21" stroke="none"/>
            <circle cx="21" cy="21" r="19.5"/>
        </g>
    </g>
    <path id="Path_245" d="M177.622 150.408h-.561a3.588 3.588 0 0 0-2.667 1.167v-.369a.577.577 0 0 0-.532-.532H171.2a.545.545 0 0 0-.532.5v9.926a.523.523 0 0 0 .532.48h2.927a.523.523 0 0 0 .532-.48v-5.737a1.5 1.5 0 0 1 2.565-1.11 1.464 1.464 0 0 1 .362 1.087v5.708a.577.577 0 0 0 .532.532h2.661a.577.577 0 0 0 .532-.532v-6.868a3.7 3.7 0 0 0-3.689-3.772z" class="cls-1" transform="translate(-152.328 -133.66)"/>
</svg>
