<?xml version="1.0" encoding="utf-8"?>
<!-- Generator: Adobe Illustrator 22.0.1, SVG Export Plug-In . SVG Version: 6.00 Build 0)  -->
<svg version="1.1" id="Layer_1" xmlns="http://www.w3.org/2000/svg" xmlns:xlink="http://www.w3.org/1999/xlink" x="0px" y="0px"
	 viewBox="0 0 44.5 43.7" style="enable-background:new 0 0 44.5 43.7;" xml:space="preserve">
<style type="text/css">
	.st0{fill:none;stroke:#333333;stroke-width:2;stroke-miterlimit:10;}
	.st1{fill:#333333;}
</style>
<circle class="st0" cx="22.7" cy="21.8" r="20"/>
<g>
	<g>
		<path class="st1" d="M29.3,26.1c-0.8-0.8-1.8-0.8-2.6,0c-0.6,0.6-1.2,1.2-1.8,1.8c-0.2,0.2-0.3,0.2-0.5,0.1
			c-0.4-0.2-0.8-0.4-1.2-0.6c-1.8-1.1-3.2-2.5-4.5-4.1c-0.6-0.8-1.2-1.7-1.6-2.6c-0.1-0.2-0.1-0.3,0.1-0.5c0.6-0.6,1.2-1.2,1.8-1.8
			c0.8-0.8,0.8-1.8,0-2.7c-0.5-0.5-1-1-1.4-1.4c-0.5-0.5-1-1-1.5-1.5c-0.8-0.8-1.8-0.8-2.6,0c-0.6,0.6-1.2,1.2-1.8,1.8
			c-0.6,0.5-0.9,1.2-0.9,2c-0.1,1.3,0.2,2.5,0.7,3.6c0.9,2.4,2.3,4.6,3.9,6.5c2.2,2.7,4.9,4.8,8.1,6.3c1.4,0.7,2.9,1.2,4.5,1.3
			c1.1,0.1,2-0.2,2.8-1.1c0.5-0.6,1.1-1.1,1.7-1.7c0.8-0.8,0.8-1.8,0-2.6C31.3,28,30.3,27.1,29.3,26.1z"/>
		<path class="st1" d="M28.4,22l1.9-0.3c-0.3-1.7-1.1-3.3-2.4-4.5c-1.3-1.3-3-2.1-4.8-2.4l-0.3,1.9c1.4,0.2,2.7,0.8,3.7,1.9
			C27.5,19.5,28.1,20.7,28.4,22z"/>
		<path class="st1" d="M31.3,13.8c-2.2-2.2-4.9-3.6-8-4l-0.3,1.9c2.6,0.4,5,1.6,6.9,3.4c1.8,1.8,3,4,3.4,6.5l1.9-0.3
			C34.7,18.5,33.4,15.9,31.3,13.8z"/>
	</g>
</g>
</svg>
